<svg xmlns="http://www.w3.org/2000/svg" viewBox="-1 3 25 17" width="100" height="auto">
    <g>
        <!-- Rodas -->
        <path fill="#212121" d="M7,19c-1.66,0 -3,-1.34 -3,-3s1.34,-3 3,-3 3,1.34 3,3 -1.34,3 -3,3z M17,19c-1.66,0 -3,-1.34 -3,-3s1.34,-3 3,-3 3,1.34 3,3 -1.34,3 -3,3z"/>
        <path fill="#B0BEC5" d="M7,17.5c-0.83,0 -1.5,-0.67 -1.5,-1.5s0.67,-1.5 1.5,-1.5 1.5,0.67 1.5,1.5 -0.67,1.5 -1.5,1.5z M17,17.5c-0.83,0 -1.5,-0.67 -1.5,-1.5s0.67,-1.5 1.5,-1.5 1.5,0.67 1.5,1.5 -0.67,1.5 -1.5,1.5z"/>
        
        <!-- Cabine -->
        <path fill="#1976D2" d="M1,16h4V8H4L1,11v5z"/>
        <path fill="#1565C0" d="M4,8h6v8H4V8z"/>
        
        <!-- Para-choque -->
        <path fill="#37474F" d="M0,16h4v2H1c-0.55,0 -1,-0.45 -1,-1v-1z"/>
        
        <!-- Baú -->
        <path fill="#FFA000" d="M10,4h13v12H10V4z"/>
        
        <!-- Detalhe do Baú -->
        <path fill="#FFCA28" d="M10,4h1v12h-1z M22,4h1v12h-1z"/>
        
        <!-- Janela -->
        <path fill="#BBDEFB" d="M2,11h3V9H4L2,11z"/>
        <path fill="#90CAF9" d="M6,9h3v3H6V9z"/>
        
        <!-- Porta -->
        <path fill="#0D47A1" d="M9,11h1v0.5H9z"/>
        
        <!-- Pin GPS -->
        <path fill="#F44336" d="M16.5,6c-1.66,0 -3,1.34 -3,3c0,2 3,5 3,5s3,-3 3,-5c0,-1.66 -1.34,-3 -3,-3z"/>
        <circle cx="16.5" cy="9" r="1" fill="#FFFFFF"/>
    </g>
</svg>
